:SAMPLES-PER-SECOND 24
:FULLY-SPECIFIED
:DEGREES
325
root  1.63418 39.6631 51.8347 173.368 -68.8147 178.865
RightUpLeg  -0.331002 -11.9229 -14.7281
RightLeg  27.5319 10.3946 5.61978
RightFoot  -2.57406 -1.009 12.7061
RightToes  -1.74623e-010 0 -2.59999e-017
Spine  4.48124 -1.52532 -6.92735
Spine1  12.0608 -3.50146 4.16835
HEad  -9.2789 -38.4392 12.3235
LeftShoulder1  1.85994 -3.17853 -21.4691
LeftArm  23.7558 6.13652 -51.5481
LeftForeArm  122.205 -78.0496 -122.653
LeftHand  0.058232 8.78927 3.53295
RightShoulder  2.82539 4.88049 27.7384
RightArm  -17.0385 -9.88282 35.9438
RightForeArm  2.02718 38.5876 8.83643
RightHand  -0.90376 -2.0527 -31.4323
LeftUpLeg  0.95132 12.2716 13.9366
LeftLeg  30.3562 1.22301 1.15137
LeftFoot  0.961786 1.29336 -12.1965
LeftToes  -6.27559e-011 -2.10356e-011 8.24929e-012
326
root  1.35406 41.1606 51.8981 175.668 -68.0268 177.922
RightUpLeg  0.243924 -10.1125 -14.1125
RightLeg  20.3576 8.7289 3.36386
RightFoot  9.72765 -2.54426 13.9823
RightToes  -1.74623e-010 0 -2.59999e-017
Spine  3.45429 -1.41045 -6.74096
Spine1  9.69681 -3.06006 4.60471
HEad  -6.24644 -38.8565 11.1274
LeftShoulder1  1.89492 -3.2918 -21.5237
LeftArm  25.0765 11.5156 -51.8916
LeftForeArm  124.485 -78.1553 -122.758
LeftHand  -0.0487514 6.19931 -1.82889
RightShoulder  2.76554 4.76975 27.4574
RightArm  -3.92779 -15.2407 36.5981
RightForeArm  -11.9092 29.6326 7.06428
RightHand  -0.773755 -0.337615 -17.7476
LeftUpLeg  2.98667 12.9688 12.6179
LeftLeg  21.8431 2.50272 1.44228
LeftFoot  10.8339 1.83081 -9.66466
LeftToes  -6.27559e-011 -2.10356e-011 8.24929e-012
327
root  1.23694 41.9134 51.9719 178.061 -67.7033 176.197
RightUpLeg  -0.234612 -9.89696 -14.2555
RightLeg  18.4132 7.09707 2.41989
RightFoot  12.7456 -2.42762 11.7053
RightToes  -1.74623e-010 0 -2.59999e-017
Spine  2.82591 -1.36052 -7.09022
Spine1  9.3149 -2.93954 4.55177
HEad  -7.72113 -38.6145 11.9959
LeftShoulder1  1.88711 -3.5217 -20.4317
LeftArm  25.0017 12.9941 -51.8345
LeftForeArm  128.123 -78.1106 -124.068
LeftHand  0.0483252 4.08608 -7.17151
RightShoulder  2.50769 4.42228 25.5976
RightArm  5.62563 -18.6284 39.1791
RightForeArm  -11.6625 22.5883 6.02597
RightHand  -0.0150324 -0.965031 -0.236114
LeftUpLeg  3.62435 12.6353 11.1127
LeftLeg  18.6452 4.12263 1.79828
LeftFoot  10.4093 1.60337 -8.65698
LeftToes  -6.27559e-011 -2.10356e-011 8.24929e-012
328
root  1.29882 41.9733 52.0745 179.412 -68.0062 174.599
RightUpLeg  -0.505304 -10.6144 -14.7654
RightLeg  20.5206 7.68428 2.96931
RightFoot  9.66042 -1.69596 9.49733
RightToes  -1.74623e-010 0 -2.59999e-017
Spine  3.60852 -1.46689 -7.38742
Spine1  9.79469 -3.12059 4.09711
HEad  -10.9389 -38.3639 13.2642
LeftShoulder1  1.74292 -3.41802 -18.6215
LeftArm  25.4723 10.4963 -51.2613
LeftForeArm  127.684 -77.9981 -124.527
LeftHand  0.0282966 4.37132 -6.41805
RightShoulder  2.37079 4.26129 24.4411
RightArm  -0.19059 -20.018 40.9481
RightForeArm  6.53009 15.895 8.74527
RightHand  0.245349 -2.47054 10.1619
LeftUpLeg  3.37792 11.7603 10.0684
LeftLeg  19.5997 2.33765 1.18766
LeftFoot  8.50287 1.37619 -8.16205
LeftToes  -6.27559e-011 -2.10356e-011 8.24929e-012
329
root  1.45612 41.4186 52.2591 179.814 -67.9139 173.743
RightUpLeg  -1.63746 -10.3561 -15.1552
RightLeg  25.3969 9.31286 4.58987
RightFoot  7.61184 -1.82996 11.2497
RightToes  -1.74623e-010 0 -2.59999e-017
Spine  5.53021 -1.3106 -7.07242
Spine1  9.42156 -3.03556 3.68323
HEad  -13.4256 -38.163 13.5703
LeftShoulder1  1.67466 -3.23002 -18.2919
LeftArm  25.9381 6.00742 -48.8524
LeftForeArm  123.562 -78.1845 -122.323
LeftHand  -0.0255853 5.13817 -2.65952
RightShoulder  2.47018 4.4982 24.7901
RightArm  -6.96782 -21.4357 40.5756
RightForeArm  16.9476 11.922 10.3675
RightHand  0.0254483 -4.72743 8.24887
LeftUpLeg  2.78815 10.2433 9.30087
LeftLeg  22.0071 -0.0611762 0.314205
LeftFoot  9.48331 1.60049 -8.96965
LeftToes  -6.27559e-011 -2.10356e-011 8.24929e-012
330
root  1.59264 40.2617 52.4261 -179.404 -68.1375 172.735
RightUpLeg  -2.75147 -11.0736 -15.856
RightLeg  30.6235 9.68108 5.91706
RightFoot  1.39223 -1.36114 12.2412
RightToes  -1.74623e-010 0 -2.59999e-017
Spine  7.01578 -1.19645 -7.47163
Spine1  9.12148 -3.24133 4.10289
HEad  -15.4678 -37.657 13.2927
LeftShoulder1  1.69542 -3.17606 -18.8424
LeftArm  24.6129 0.90333 -45.8354
LeftForeArm  117.675 -78.642 -117.691
LeftHand  -0.0329748 5.62968 -0.721096
RightShoulder  2.61644 4.8073 25.4305
RightArm  -6.67875 -23.3548 39.3753
RightForeArm  13.6367 11.9822 10.5911
RightHand  -0.0146347 -4.56817 1.65095
LeftUpLeg  1.62759 9.3846 8.83359
LeftLeg  26.3006 -0.92003 -0.143459
LeftFoot  3.45895 1.42893 -11.1376
LeftToes  -6.27559e-011 -2.10356e-011 8.24929e-012
331
root  1.71415 38.6887 52.559 -178.772 -68.9895 172.207
RightUpLeg  -3.53313 -12.5153 -16.3219
RightLeg  34.8558 8.45297 6.04072
RightFoot  -10.8654 -0.119276 9.9158
RightToes  -1.74623e-010 0 -2.59999e-017
Spine  7.37967 -1.54206 -8.49832
Spine1  10.4792 -4.13611 5.0385
HEad  -18.4085 -36.5624 13.7434
LeftShoulder1  1.64006 -2.91537 -19.024
LeftArm  21.7271 -4.94438 -43.0676
LeftForeArm  113.323 -79.0459 -113.258
LeftHand  -0.0138715 7.17574 1.36715
RightShoulder  2.76007 4.97616 26.543
RightArm  -5.91501 -22.3835 37.1776
RightForeArm  9.95084 11.6315 11.1139
RightHand  -0.091643 -1.92573 -2.77814
LeftUpLeg  -0.372079 9.83283 9.03255
LeftLeg  32.2559 -1.84105 -0.886074
LeftFoot  -9.89818 0.228045 -12.6184
LeftToes  -6.27559e-011 -2.10356e-011 8.24929e-012
332
root  1.81014 37.4632 52.7411 -179.106 -69.0913 172.939
RightUpLeg  -5.28887 -12.006 -15.9374
RightLeg  38.3313 6.77375 5.45451
RightFoot  -18.8923 0.434216 8.33996
RightToes  -1.74623e-010 0 -2.59999e-017
Spine  6.76238 -2.08617 -9.51179
Spine1  13.2884 -5.34098 6.18995
HEad  -21.9201 -34.692 14.8631
LeftShoulder1  1.65389 -2.71184 -20.1573
LeftArm  17.7855 -7.7543 -40.6347
LeftForeArm  111.767 -79.4207 -109.524
LeftHand  0.155048 9.19051 5.91003
RightShoulder  2.96273 5.11687 28.4243
RightArm  -14.0341 -17.0885 34.5899
RightForeArm  14.1816 6.91101 11.9101
RightHand  -0.425292 0.0417907 -9.02054
LeftUpLeg  -2.44762 10.1979 9.23061
LeftLeg  36.8975 -2.19791 -1.36917
LeftFoot  -18.5104 -0.674438 -12.5101
LeftToes  -6.27559e-011 -2.10356e-011 8.24929e-012
333
root  1.7206 37.4794 52.9431 -179.293 -68.0965 173.487
RightUpLeg  -6.56604 -10.2428 -15.7131
RightLeg  39.1357 6.19839 5.13233
RightFoot  -17.7877 0.411705 9.36351
RightToes  -1.74623e-010 0 -2.59999e-017
Spine  5.72216 -2.4305 -10.749
Spine1  15.5204 -6.47458 7.88476
HEad  -23.3139 -33.1682 15.2247
LeftShoulder1  1.81179 -2.84603 -22.2043
LeftArm  14.4675 -2.91623 -41.353
LeftForeArm  110.775 -79.5678 -107.736
LeftHand  0.391867 10.021 10.6863
RightShoulder  3.07524 5.1979 29.426
RightArm  -23.9663 -12.772 34.6997
RightForeArm  14.9419 4.471 10.7412
RightHand  -0.832986 -0.555629 -19.9339
LeftUpLeg  -2.46023 10.1403 8.72886
LeftLeg  36.6652 -1.30832 -0.656624
LeftFoot  -18.2794 -0.658934 -12.6521
LeftToes  -6.27559e-011 -2.10356e-011 8.24929e-012
334
root  1.39107 38.7952 53.1158 -179.349 -67.2416 173.686
RightUpLeg  -5.25696 -10.0767 -16.0665
RightLeg  34.7518 7.52598 5.3431
RightFoot  -9.13341 -0.282527 11.3936
RightToes  -1.74623e-010 0 -2.59999e-017
Spine  5.06293 -2.51878 -11.0783
Spine1  15.6125 -6.87624 9.29566
HEad  -20.9861 -33.708 14.8756
LeftShoulder1  1.86556 -2.88705 -22.9064
LeftArm  13.9442 5.92045 -45.8663
LeftForeArm  109.335 -79.3634 -108.974
LeftHand  0.415385 9.83142 11.6469
RightShoulder  3.01282 5.11058 29.0504
RightArm  -25.2427 -13.4873 37.2283
RightForeArm  6.08406 8.95029 10.4847
RightHand  -1.01769 -1.3961 -29.1426
LeftUpLeg  0.0954645 10.7922 8.25749
LeftLeg  30.9207 -0.86682 -0.192513
LeftFoot  -10.8827 0.115311 -12.5356
LeftToes  -6.27559e-011 -2.10356e-011 8.24929e-012
335
root  0.992015 40.4915 53.2425 -179.24 -66.9185 173.761
RightUpLeg  -2.68653 -11.5956 -16.3822
RightLeg  27.2649 8.62214 4.60256
RightFoot  4.03536 -1.6639 12.5542
RightToes  -1.74623e-010 0 -2.59999e-017
Spine  4.56166 -2.30578 -9.94416
Spine1  14.3582 -6.13708 9.17236
HEad  -16.7423 -35.7383 14.809
LeftShoulder1  1.83322 -2.92837 -22.1777
LeftArm  16.1793 13.2647 -49.9501
LeftForeArm  109.956 -79.2334 -110.388
LeftHand  0.178538 8.50061 7.78084
RightShoulder  2.96817 5.02777 28.8625
RightArm  -11.608 -17.0123 39.0393
RightForeArm  -9.5872 17.5539 8.31576
RightHand  -0.975257 -1.19545 -26.4974
LeftUpLeg  3.12633 12.401 8.21806
LeftLeg  23.0828 -2.00521 -0.607527
LeftFoot  2.04631 1.40234 -11.9764
LeftToes  -6.27559e-011 -2.10356e-011 8.24929e-012
336
root  0.674579 41.6457 53.3333 -178.092 -66.9161 173.221
RightUpLeg  -1.40189 -12.3267 -16.2288
RightLeg  21.5862 6.62416 2.68343
RightFoot  12.378 -2.26002 11.1733
RightToes  -1.74623e-010 0 -2.59999e-017
Spine  3.31014 -2.14724 -8.67256
Spine1  13.6629 -5.25797 8.22314
HEad  -13.844 -37.0622 15.0367
LeftShoulder1  1.86196 -3.24004 -21.2341
LeftArm  18.5943 18.1804 -51.5554
LeftForeArm  119.452 -78.9663 -116.107
LeftHand  -0.0180572 5.84922 1.83097
RightShoulder  2.94883 4.97485 28.8519
RightArm  -3.28643 -20.4888 38.9901
RightForeArm  -11.0822 25.8333 5.91579
RightHand  -0.594211 -0.058649 -13.0084
LeftUpLeg  4.36886 11.8201 7.63016
LeftLeg  17.5375 -1.41421 -0.605224
LeftFoot  12.1279 2.39252 -11.8545
LeftToes  -6.27559e-011 -2.10356e-011 8.24929e-012
337
root  0.480509 42.1092 53.4475 -176.819 -67.1699 172.848
RightUpLeg  -1.54615 -10.6773 -15.4714
RightLeg  19.3555 4.65426 1.60601
RightFoot  11.8008 -1.65305 8.42897
RightToes  -1.74623e-010 0 -2.59999e-017
Spine  1.8147 -2.31175 -7.89566
Spine1  14.0549 -5.07311 7.73152
HEad  -13.9454 -36.9847 15.4248
LeftShoulder1  1.82718 -3.35092 -20.212
LeftArm  20.1329 20.1196 -51.9319
LeftForeArm  133.052 -78.0905 -125.559
LeftHand  0.00369687 4.20631 -2.92459
RightShoulder  2.8487 4.84 28.1956
RightArm  -5.37361 -21.8417 38.437
RightForeArm  -1.03428 34.2044 7.69808
RightHand  0.00706852 0.38779 0.257609
LeftUpLeg  3.86736 9.11371 6.72767
LeftLeg  15.3537 1.7271 0.097087
LeftFoot  13.3617 2.12493 -10.0543
LeftToes  -6.27559e-011 -2.10356e-011 8.24929e-012
